<?xml version="1.0" encoding="UTF-8" standalone="no"?>
<svg
   width="576pt"
   height="432pt"
   viewBox="0 0 576 432"
   version="1.1"
   id="svg45"
   sodipodi:docname="log_surface_price_rotated.svg"
   inkscape:version="1.4.2 (ebf0e940, 2025-05-08)"
   xmlns:inkscape="http://www.inkscape.org/namespaces/inkscape"
   xmlns:sodipodi="http://sodipodi.sourceforge.net/DTD/sodipodi-0.dtd"
   xmlns:xlink="http://www.w3.org/1999/xlink"
   xmlns="http://www.w3.org/2000/svg"
   xmlns:svg="http://www.w3.org/2000/svg"
   xmlns:rdf="http://www.w3.org/1999/02/22-rdf-syntax-ns#"
   xmlns:cc="http://creativecommons.org/ns#"
   xmlns:dc="http://purl.org/dc/elements/1.1/">
  <sodipodi:namedview
     id="namedview45"
     pagecolor="#ffffff"
     bordercolor="#000000"
     borderopacity="0.25"
     inkscape:showpageshadow="2"
     inkscape:pageopacity="0.0"
     inkscape:pagecheckerboard="0"
     inkscape:deskcolor="#d1d1d1"
     inkscape:document-units="pt"
     inkscape:zoom="1.3457645"
     inkscape:cx="406.46043"
     inkscape:cy="257.10294"
     inkscape:window-width="1440"
     inkscape:window-height="847"
     inkscape:window-x="0"
     inkscape:window-y="25"
     inkscape:window-maximized="1"
     inkscape:current-layer="axes_1" />
  <metadata
     id="metadata1">
    <rdf:RDF>
      <cc:Work>
        <dc:type
           rdf:resource="http://purl.org/dc/dcmitype/StillImage" />
        <dc:date>2025-09-07T14:30:40.909183</dc:date>
        <dc:format>image/svg+xml</dc:format>
        <dc:creator>
          <cc:Agent>
            <dc:title>Matplotlib v3.9.0, https://matplotlib.org/</dc:title>
          </cc:Agent>
        </dc:creator>
      </cc:Work>
    </rdf:RDF>
  </metadata>
  <defs
     id="defs1">
    <style
       type="text/css"
       id="style1">*{stroke-linejoin: round; stroke-linecap: butt}</style>
  </defs>
  <g
     id="figure_1">
    <g
       id="patch_1">
      <path
         d="M 0 432  L 576 432  L 576 0  L 0 0  z "
         style="fill: #ffffff"
         id="path1" />
    </g>
    <g
       id="axes_1">
      <g
         id="patch_2">
        <path
           d="M 45.58 382.58  L 562.458689 382.58  L 562.458689 10.8  L 45.58 10.8  z "
           style="fill: #ffffff"
           id="path2" />
      </g>
      <g
         id="LineCollection_1">
        <path
           d="M 104.893948 382.58  L 104.893948 10.8  "
           clip-path="url(#p6419148de9)"
           style="fill: none; stroke-dasharray: 1,4; stroke-dashoffset: 0; stroke: #d9d9d9"
           id="path3" />
        <path
           d="M 274.36237 382.58  L 274.36237 10.8  "
           clip-path="url(#p6419148de9)"
           style="fill: none; stroke-dasharray: 1,4; stroke-dashoffset: 0; stroke: #d9d9d9"
           id="path4" />
        <path
           d="M 556.809741 382.58  L 556.809741 10.8  "
           clip-path="url(#p6419148de9)"
           style="fill: none; stroke-dasharray: 1,4; stroke-dashoffset: 0; stroke: #d9d9d9"
           id="path5" />
      </g>
      <g
         id="LineCollection_2">
        <path
           d="M 45.58 219.92625  L 562.458689 219.92625  "
           clip-path="url(#p6419148de9)"
           style="fill: none; stroke-dasharray: 1,4; stroke-dashoffset: 0; stroke: #d9d9d9"
           id="path6" />
        <path
           d="M 45.58 65.017917  L 562.458689 65.017917  "
           clip-path="url(#p6419148de9)"
           style="fill: none; stroke-dasharray: 1,4; stroke-dashoffset: 0; stroke: #d9d9d9"
           id="path7" />
      </g>
      <g
         id="PolyCollection_1"
         transform="rotate(31.341334,99.850164,268.26397)">
        <defs
           id="defs7">
          <path
             id="m6f2b46f591"
             d="m 62.526842,-164.88387 v 0.34418 h 0.212367 0.212366 0.212367 0.212366 0.212366 0.212367 0.212366 0.212367 0.212366 0.212367 0.212366 0.212367 0.212366 0.212366 0.212367 0.212366 0.212367 0.212366 0.212367 0.212366 0.212367 0.212366 0.212366 0.212367 0.212366 0.212367 0.212366 0.212367 0.212366 0.212367 0.212366 0.212366 0.212367 0.212366 0.212367 0.212366 0.212367 0.212366 0.212367 0.212366 0.212366 0.212367 0.212366 0.212367 0.212366 0.212367 0.212366 0.212367 0.212366 0.212366 0.212367 0.212366 0.212367 0.212366 0.212367 0.212366 0.212367 0.212366 0.212366 0.212367 0.212366 0.212367 0.212366 0.212367 0.212366 0.212367 0.212366 0.212366 0.212367 0.212366 0.212367 0.212366 0.212367 0.212366 0.212367 0.212366 0.212366 0.212367 0.212366 0.212367 0.212366 0.212367 0.212366 0.212367 0.212366 0.212366 0.212367 0.212366 0.212367 0.212366 0.212367 0.212366 0.212367 0.212366 0.212366 0.212367 0.212366 0.212367 0.212366 0.212367 0.212366 0.212367 0.212366 0.212366 0.212367 0.212366 0.212367 0.212366 0.212367 0.212366 0.212367 0.212366 0.212366 0.212367 0.212366 0.212367 0.212366 0.212367 0.212366 0.212367 0.212366 0.212366 0.212367 0.212366 0.212367 0.212366 0.212367 0.212366 0.212367 0.212366 0.212366 0.212367 0.212366 0.212367 0.212366 0.212367 0.212366 0.212367 0.212366 0.212366 0.212367 0.212366 0.212367 0.212366 0.212367 0.212366 0.212367 0.212366 0.212366 0.212367 0.212366 0.212367 0.212366 0.212367 0.212366 0.212367 0.212366 0.212366 0.212367 0.212366 0.212367 0.212366 0.212367 0.212366 0.212367 0.212366 0.212366 0.212367 0.212366 0.212367 0.212366 0.212367 0.212366 0.212367 0.212366 0.212366 0.212364 0.21237 0.21237 0.21236 0.21237 0.21237 0.21236 0.21237 0.21236 0.21237 0.21237 0.21236 0.21237 0.21237 0.21236 0.21237 0.21237 0.21236 0.21237 0.21237 0.21236 0.21237 0.21236 0.21237 0.21237 0.21236 0.21237 0.21237 0.21236 0.21237 0.21237 0.21236 0.21237 0.21237 0.21236 0.21237 0.21237 0.21236 0.21237 0.21236 0.21237 0.21237 0.21236 0.21237 0.21237 0.21236 0.21237 0.21237 0.21236 0.21237 0.21237 0.21236 0.21237 0.21236 0.21237 0.21237 0.21236 0.21237 0.21237 0.21236 0.21237 0.21237 0.21236 0.21237 0.21237 0.21236 0.21237 0.21237 0.21236 0.21237 0.21236 0.21237 0.21237 0.21236 0.21237 0.21237 0.21236 0.21237 0.21237 0.21236 0.21237 0.21237 0.21236 0.21237 0.21236 0.21237 0.21237 0.21236 0.21237 0.21237 0.21236 0.21237 0.21237 0.21236 0.21237 0.21237 0.21236 0.21237 0.21236 0.21237 0.21237 0.21236 0.21237 0.21237 0.21236 0.21237 0.21237 0.21236 0.21237 0.21236 0.21237 0.21237 0.21237 0.21236 0.21237 0.21236 0.21237 0.21237 0.21236 0.21237 0.21237 0.21236 0.21237 0.21237 0.21236 0.21237 0.21236 0.21237 0.21237 0.21236 0.21237 0.21237 0.21236 0.21237 0.21237 0.21236 0.21237 0.21237 0.21236 0.21237 0.21236 0.21237 0.21237 0.21236 0.21237 0.21237 0.21236 0.21237 0.21237 0.21236 0.21237 0.21237 0.21236 0.21237 0.21236 0.21237 0.21237 0.21236 0.21237 0.21237 0.21236 0.21237 0.21237 0.21236 0.21237 0.21237 0.21236 0.21237 0.21236 0.21237 0.21237 0.21236 0.21237 0.21237 0.21236 0.21237 0.21237 0.21236 0.21237 0.21237 0.21236 0.21237 0.21237 0.21236 0.21237 0.21236 0.21237 0.21237 0.21236 0.21237 0.21237 0.21236 0.21237 0.21237 0.21236 0.21237 0.21237 0.21236 0.21237 0.21236 0.21237 0.21237 0.21236 0.21237 0.21237 0.21236 0.21237 0.21237 0.21236 0.21237 0.21237 0.21236 0.21237 0.21236 0.21237 0.21237 0.21236 0.21237 0.21237 0.21236 0.21237 0.21237 0.21236 v -0.34418 0 l -0.21236,-0.0158 -0.21237,-0.0165 -0.21237,-0.0171 -0.21236,-0.0178 -0.21237,-0.0186 -0.21237,-0.0193 -0.21236,-0.02 -0.21237,-0.0208 -0.21237,-0.0216 -0.21236,-0.0225 -0.21237,-0.0233 -0.21236,-0.0242 -0.21237,-0.0251 -0.21237,-0.0261 -0.21236,-0.0271 -0.21237,-0.028 -0.21237,-0.0291 -0.21236,-0.0301 -0.21237,-0.0312 -0.21237,-0.0323 -0.21236,-0.0335 -0.21237,-0.0347 -0.21237,-0.0359 -0.21236,-0.0371 -0.21237,-0.0384 -0.21236,-0.0398 -0.21237,-0.0411 -0.21237,-0.0425 -0.21236,-0.0439 -0.21237,-0.0454 -0.21237,-0.0469 -0.21236,-0.0484 -0.21237,-0.05 -0.21237,-0.0516 -0.21236,-0.0532 -0.21237,-0.0549 -0.21237,-0.0566 -0.21236,-0.0584 -0.21237,-0.0602 -0.21236,-0.062 -0.21237,-0.0639 -0.21237,-0.0658 -0.21236,-0.0678 -0.21237,-0.0698 -0.21237,-0.0718 -0.21236,-0.0739 -0.21237,-0.076 -0.21237,-0.0781 -0.21236,-0.0803 -0.21237,-0.0825 -0.21237,-0.0848 -0.21236,-0.0871 -0.21237,-0.0895 -0.21237,-0.0919 -0.21236,-0.0943 -0.21237,-0.0967 -0.21236,-0.0992 -0.21237,-0.10177 -0.21237,-0.10435 -0.21236,-0.10695 -0.21237,-0.10958 -0.21237,-0.11226 -0.21236,-0.11497 -0.21237,-0.1177 -0.21237,-0.12047 -0.21236,-0.12328 -0.21237,-0.1261 -0.21237,-0.12896 -0.21236,-0.13185 -0.21237,-0.13476 -0.21236,-0.1377 -0.21237,-0.14066 -0.21237,-0.14364 -0.21236,-0.14664 -0.21237,-0.14967 -0.21237,-0.15272 -0.21236,-0.15577 -0.21237,-0.15884 -0.21237,-0.16193 -0.21236,-0.16503 -0.21237,-0.16813 -0.21237,-0.17125 -0.21236,-0.17437 -0.21237,-0.17749 -0.21236,-0.18063 -0.21237,-0.18374 -0.21237,-0.18687 -0.21236,-0.18999 -0.21237,-0.1931 -0.21237,-0.1962 -0.21236,-0.19929 -0.21237,-0.20237 -0.21237,-0.20543 -0.21236,-0.20847 -0.21237,-0.21149 -0.21237,-0.21448 -0.21236,-0.21745 -0.21237,-0.22039 -0.21236,-0.22329 -0.21237,-0.22616 -0.21237,-0.229 -0.21236,-0.23179 -0.21237,-0.23454 -0.21237,-0.23724 -0.21236,-0.2399 -0.21237,-0.2425 -0.21237,-0.24504 -0.21236,-0.24754 -0.21237,-0.24996 -0.21236,-0.25232 -0.21237,-0.25463 -0.21237,-0.25685 -0.21237,-0.25901 -0.21236,-0.26109 -0.21237,-0.26308 -0.21236,-0.26501 -0.21237,-0.26685 -0.21237,-0.2686 -0.21236,-0.27025 -0.21237,-0.27182 -0.21237,-0.27329 -0.21236,-0.27467 -0.21237,-0.27594 -0.21237,-0.27711 -0.21236,-0.27817 -0.21237,-0.27912 -0.21236,-0.27996 -0.21237,-0.2807 -0.21237,-0.28131 -0.21236,-0.2818 -0.21237,-0.28218 -0.21237,-0.28243 -0.21236,-0.28255 -0.21237,-0.28256 -0.21237,-0.28242 -0.21236,-0.28217 -0.21237,-0.28177 -0.21237,-0.28125 -0.21236,-0.28059 -0.21237,-0.27979 -0.21236,-0.27885 -0.21237,-0.27778 -0.21237,-0.27656 -0.21236,-0.2752 -0.21237,-0.27371 -0.21237,-0.27205 -0.21236,-0.27027 -0.21237,-0.26834 -0.21237,-0.26626 -0.21236,-0.26403 -0.21237,-0.26167 -0.21237,-0.25916 -0.21236,-0.25649 -0.21237,-0.25369 -0.21236,-0.25075 -0.21237,-0.24765 -0.21237,-0.24441 -0.21236,-0.24104 -0.21237,-0.23751 -0.21237,-0.23386 -0.21236,-0.23005 -0.21237,-0.22612 -0.21237,-0.22203 -0.21236,-0.21783 -0.21237,-0.21349 -0.21237,-0.20901 -0.21236,-0.2044 -0.21237,-0.19967 -0.21237,-0.19482 -0.21236,-0.18984 -0.21237,-0.18473 -0.21236,-0.17952 -0.21237,-0.17419 -0.21237,-0.16874 -0.21236,-0.1632 -0.21237,-0.15753 -0.21237,-0.15178 -0.21236,-0.14591 -0.21237,-0.13997 -0.21237,-0.13392 -0.21236,-0.12778 -0.21237,-0.12157 -0.21237,-0.11526 -0.21236,-0.1089 -0.21237,-0.10244 -0.21236,-0.0959 -0.21237,-0.0893 -0.21237,-0.0827 -0.21236,-0.076 -0.21237,-0.0693 -0.21237,-0.0625 -0.21236,-0.0556 -0.21237,-0.0488 -0.21237,-0.0419 -0.21236,-0.0349 -0.21237,-0.028 -0.21237,-0.021 -0.21236,-0.014 -0.21237,-0.007 h -0.21237 l -0.21236,0.007 -0.21237,0.014 -0.21236,0.021 -0.21237,0.028 -0.21237,0.0349 -0.21236,0.0419 -0.21237,0.0488 -0.21237,0.0556 -0.21236,0.0625 -0.21237,0.0693 -0.21237,0.076 -0.21236,0.0827 -0.21237,0.0893 -0.21237,0.0959 -0.21236,0.10244 -0.21237,0.1089 -0.21236,0.11526 -0.21237,0.12157 -0.21237,0.12778 -0.21236,0.13392 -0.21237,0.13997 -0.21237,0.14591 -0.212364,0.15178 -0.212366,0.15753 -0.212366,0.1632 -0.212367,0.16874 -0.212366,0.17419 -0.212367,0.17952 -0.212366,0.18473 -0.212367,0.18984 -0.212366,0.19482 -0.212367,0.19967 -0.212366,0.2044 -0.212366,0.20901 -0.212367,0.21349 -0.212366,0.21783 -0.212367,0.22203 -0.212366,0.22612 -0.212367,0.23005 -0.212366,0.23386 -0.212367,0.23751 -0.212366,0.24104 -0.212366,0.24441 -0.212367,0.24765 -0.212366,0.25075 -0.212367,0.25369 -0.212366,0.25649 -0.212367,0.25916 -0.212366,0.26167 -0.212367,0.26403 -0.212366,0.26626 -0.212366,0.26834 -0.212367,0.27027 -0.212366,0.27205 -0.212367,0.27371 -0.212366,0.2752 -0.212367,0.27656 -0.212366,0.27778 -0.212367,0.27885 -0.212366,0.27979 -0.212366,0.28059 -0.212367,0.28125 -0.212366,0.28177 -0.212367,0.28217 -0.212366,0.28242 -0.212367,0.28256 -0.212366,0.28255 -0.212367,0.28243 -0.212366,0.28218 -0.212366,0.2818 -0.212367,0.28131 -0.212366,0.2807 -0.212367,0.27996 -0.212366,0.27912 -0.212367,0.27817 -0.212366,0.27711 -0.212367,0.27594 -0.212366,0.27467 -0.212366,0.27329 -0.212367,0.27182 -0.212366,0.27025 -0.212367,0.2686 -0.212366,0.26685 -0.212367,0.26501 -0.212366,0.26308 -0.212367,0.26109 -0.212366,0.25901 -0.212366,0.25685 -0.212367,0.25463 -0.212366,0.25232 -0.212367,0.24996 -0.212366,0.24754 -0.212367,0.24504 -0.212366,0.2425 -0.212367,0.2399 -0.212366,0.23724 -0.212366,0.23454 -0.212367,0.23179 -0.212366,0.229 -0.212367,0.22616 -0.212366,0.22329 -0.212367,0.22039 -0.212366,0.21745 -0.212367,0.21448 -0.212366,0.21149 -0.212366,0.20847 -0.212367,0.20543 -0.212366,0.20237 -0.212367,0.19929 -0.212366,0.1962 -0.212367,0.1931 -0.212366,0.18999 -0.212367,0.18687 -0.212366,0.18374 -0.212366,0.18063 -0.212367,0.17749 -0.212366,0.17437 -0.212367,0.17125 -0.212366,0.16813 -0.212367,0.16503 -0.212366,0.16193 -0.212367,0.15884 -0.212366,0.15577 -0.212366,0.15272 -0.212367,0.14967 -0.212366,0.14664 -0.212367,0.14364 -0.212366,0.14066 -0.212367,0.1377 -0.212366,0.13476 -0.212367,0.13185 -0.212366,0.12896 -0.212366,0.1261 -0.212367,0.12328 -0.212366,0.12047 -0.212367,0.1177 -0.212366,0.11497 -0.212367,0.11226 -0.212366,0.10958 -0.212367,0.10695 -0.212366,0.10435 -0.212366,0.10177 -0.212367,0.0992 -0.212366,0.0967 -0.212367,0.0943 -0.212366,0.0919 -0.212367,0.0895 -0.212366,0.0871 -0.212367,0.0848 -0.212366,0.0825 -0.212366,0.0803 -0.212367,0.0781 -0.212366,0.076 -0.212367,0.0739 -0.212366,0.0718 -0.212367,0.0698 -0.212366,0.0678 -0.212367,0.0658 -0.212366,0.0639 -0.212366,0.062 -0.212367,0.0602 -0.212366,0.0584 -0.212367,0.0566 -0.212366,0.0549 -0.212367,0.0532 -0.212366,0.0516 -0.212367,0.05 -0.212366,0.0484 -0.212366,0.0469 -0.212367,0.0454 -0.212366,0.0439 -0.212367,0.0425 -0.212366,0.0411 -0.212367,0.0398 -0.212366,0.0384 -0.212367,0.0371 -0.212366,0.0359 -0.212366,0.0347 -0.212367,0.0335 -0.212366,0.0323 -0.212367,0.0312 -0.212366,0.0301 -0.212367,0.0291 -0.212366,0.028 -0.212367,0.0271 -0.212366,0.0261 -0.212366,0.0251 -0.212367,0.0242 -0.212366,0.0233 -0.212367,0.0225 -0.212366,0.0216 -0.212367,0.0208 -0.212366,0.02 -0.212367,0.0193 -0.212366,0.0186 -0.212366,0.0178 -0.212367,0.0171 -0.212366,0.0165 z"
             style="stroke:#add8e6;stroke-opacity:0.6" />
        </defs>
        <g
           clip-path="url(#p6419148de9)"
           id="g7">
          <use
             xlink:href="#m6f2b46f591"
             x="0"
             y="432"
             style="fill:#add8e6;fill-opacity:0.6;stroke:#add8e6;stroke-opacity:0.6"
             id="use7" />
        </g>
      </g>
      <g
         id="PolyCollection_2"
         transform="rotate(57.963706,274.19706,127.14872)">
        <defs
           id="defs8">
          <path
             id="m1cc0e08d74"
             d="m 231.99526,-306.82494 v 0.34418 h 0.21237 0.21237 0.21236 0.21237 0.21237 0.21236 0.21237 0.21237 0.21236 0.21237 0.21237 0.21236 0.21237 0.21236 0.21237 0.21237 0.21236 0.21237 0.21237 0.21236 0.21237 0.21237 0.21236 0.21237 0.21237 0.21236 0.21237 0.21237 0.21236 0.21237 0.21236 0.21237 0.21237 0.21236 0.21237 0.21237 0.21236 0.21237 0.21237 0.21236 0.21237 0.21236 0.21237 0.21237 0.21237 0.21236 0.21237 0.21236 0.21237 0.21237 0.21236 0.21237 0.21237 0.21236 0.21237 0.21237 0.21236 0.21237 0.21236 0.21237 0.21237 0.21236 0.21237 0.21237 0.21236 0.21237 0.21237 0.21236 0.21237 0.21237 0.21236 0.21237 0.21236 0.21237 0.21237 0.21236 0.21237 0.21237 0.21236 0.21237 0.21237 0.21236 0.21237 0.21237 0.21236 0.21237 0.21236 0.21237 0.21237 0.21236 0.21237 0.21237 0.21236 0.21237 0.21237 0.21236 0.21237 0.21237 0.21236 0.21237 0.21237 0.21236 0.21237 0.21236 0.21237 0.21237 0.21236 0.21237 0.21237 0.21236 0.21237 0.21237 0.21236 0.21237 0.21237 0.21236 0.21237 0.21236 0.21237 0.21237 0.21236 0.21237 0.21237 0.21236 0.21237 0.21237 0.21236 0.21237 0.21237 0.21236 0.21237 0.21236 0.21237 0.21237 0.21236 0.21237 0.21237 0.21236 0.21237 0.21237 0.21236 0.21237 0.21237 0.21236 0.21237 0.21237 0.21236 0.21237 0.21236 0.21237 0.21237 0.21236 0.21237 0.21237 0.21236 0.21237 0.21237 0.21236 0.21237 0.21237 0.21236 0.21237 0.21236 0.21237 0.21237 0.21236 0.21237 0.21237 0.21236 0.21237 0.21237 0.21236 0.21237 0.21237 0.21236 0.21237 0.21236 0.21237 0.21237 0.21236 0.21237 0.21237 0.21236 0.21237 0.21237 0.21236 0.21237 0.21237 0.21236 0.21237 0.21237 0.21236 0.21237 0.21236 0.21237 0.21237 0.21236 0.21237 0.21237 0.21236 0.21237 0.21237 0.21236 0.21237 0.21237 0.21236 0.21237 0.21236 0.21237 0.21237 0.21236 0.21237 0.21237 0.21236 0.21237 0.21237 0.21236 0.21237 0.21237 0.21236 0.21237 0.21237 0.21236 0.21237 0.21236 0.21237 0.21237 0.21236 0.21237 0.21237 0.21236 0.21237 0.21237 0.21236 0.21237 0.21237 0.21236 0.21237 0.21237 0.21236 0.21237 0.21236 0.21237 0.21237 0.21236 0.21237 0.21237 0.21236 0.21237 0.21237 0.21236 0.21237 0.21236 0.21237 0.21237 0.21236 0.21237 0.21237 0.21236 0.21237 0.21237 0.21236 0.21237 0.21237 0.21236 0.21237 0.21237 0.21236 0.21237 0.21236 0.21237 0.21237 0.21236 0.21237 0.21237 0.21236 0.21237 0.21237 0.21236 0.21237 0.21237 0.21236 0.21237 0.21237 0.21236 0.21237 0.21236 0.21237 0.21237 0.21236 0.21237 0.21237 0.21236 0.21237 0.21237 0.21236 0.21237 0.21236 0.21237 0.21237 0.21236 0.21237 0.21237 0.21236 0.21237 0.21237 0.21236 0.21237 0.21237 0.21236 0.21237 0.21237 0.21236 0.21237 0.21236 0.21237 0.21237 0.21236 0.21237 0.21237 0.21236 0.21237 0.21237 0.21236 0.21237 0.21237 0.21236 0.21237 0.21237 0.21236 0.21237 0.21236 0.21237 0.21237 0.21236 0.21237 0.21237 0.21236 0.21237 0.21237 0.21236 0.21237 0.21236 0.21237 0.21237 0.21236 0.21237 0.21237 0.21236 0.21237 0.21237 0.21236 0.21237 0.21237 0.21236 0.21237 0.21237 0.21236 0.21237 0.21236 0.21237 0.21237 0.21236 0.21237 0.21237 0.21236 0.21237 0.21237 0.21236 0.21237 0.21237 0.21236 0.21237 0.21237 0.21236 0.21237 0.21236 0.21237 0.21237 0.21236 0.21237 0.21237 0.21236 0.21237 0.21237 0.21236 0.21237 0.21236 0.21237 0.21237 0.21236 0.21237 0.21237 0.21236 0.21237 0.21237 0.21236 0.21237 0.21237 v -0.34418 0 l -0.21237,-0.0158 -0.21237,-0.0165 -0.21236,-0.0172 -0.21237,-0.0178 -0.21237,-0.0186 -0.21236,-0.0193 -0.21237,-0.02 -0.21237,-0.0208 -0.21236,-0.0216 -0.21237,-0.0225 -0.21237,-0.0233 -0.21236,-0.0242 -0.21237,-0.0251 -0.21236,-0.0261 -0.21237,-0.0271 -0.21237,-0.028 -0.21236,-0.0291 -0.21237,-0.0301 -0.21237,-0.0312 -0.21236,-0.0323 -0.21237,-0.0335 -0.21237,-0.0347 -0.21236,-0.0359 -0.21237,-0.0371 -0.21236,-0.0384 -0.21237,-0.0397 -0.21237,-0.0411 -0.21236,-0.0425 -0.21237,-0.0439 -0.21237,-0.0454 -0.21236,-0.0469 -0.21237,-0.0484 -0.21237,-0.05 -0.21236,-0.0516 -0.21237,-0.0532 -0.21237,-0.0549 -0.21236,-0.0566 -0.21237,-0.0584 -0.21237,-0.0602 -0.21236,-0.062 -0.21237,-0.0639 -0.21236,-0.0658 -0.21237,-0.0678 -0.21237,-0.0698 -0.21236,-0.0718 -0.21237,-0.0739 -0.21237,-0.076 -0.21236,-0.0781 -0.21237,-0.0803 -0.21237,-0.0826 -0.21236,-0.0848 -0.21237,-0.0871 -0.21237,-0.0895 -0.21236,-0.0919 -0.21237,-0.0943 -0.21237,-0.0967 -0.21236,-0.0992 -0.21237,-0.10177 -0.21236,-0.10435 -0.21237,-0.10695 -0.21237,-0.10958 -0.21236,-0.11226 -0.21237,-0.11497 -0.21237,-0.1177 -0.21236,-0.12047 -0.21237,-0.12328 -0.21237,-0.1261 -0.21236,-0.12896 -0.21237,-0.13185 -0.21236,-0.13476 -0.21237,-0.1377 -0.21237,-0.14066 -0.21236,-0.14364 -0.21237,-0.14665 -0.21237,-0.14966 -0.21236,-0.15272 -0.21237,-0.15577 -0.21237,-0.15884 -0.21236,-0.16193 -0.21237,-0.16503 -0.21237,-0.16813 -0.21236,-0.17125 -0.21237,-0.17437 -0.21237,-0.1775 -0.21236,-0.18062 -0.21237,-0.18374 -0.21236,-0.18687 -0.21237,-0.18999 -0.21237,-0.1931 -0.21236,-0.1962 -0.21237,-0.19929 -0.21237,-0.20237 -0.21236,-0.20543 -0.21237,-0.20847 -0.21237,-0.21149 -0.21236,-0.21448 -0.21237,-0.21745 -0.21237,-0.22038 -0.21236,-0.2233 -0.21237,-0.22616 -0.21237,-0.229 -0.21236,-0.23179 -0.21237,-0.23454 -0.21236,-0.23724 -0.21237,-0.2399 -0.21237,-0.2425 -0.21236,-0.24504 -0.21237,-0.24754 -0.21237,-0.24996 -0.21236,-0.25232 -0.21237,-0.25463 -0.21237,-0.25685 -0.21236,-0.25901 -0.21237,-0.26109 -0.21236,-0.26309 -0.21237,-0.265 -0.21237,-0.26685 -0.21236,-0.2686 -0.21237,-0.27025 -0.21237,-0.27182 -0.21236,-0.2733 -0.21237,-0.27466 -0.21237,-0.27594 -0.21236,-0.27711 -0.21237,-0.27817 -0.21237,-0.27912 -0.21236,-0.27996 -0.21237,-0.2807 -0.21237,-0.28131 -0.21236,-0.2818 -0.21237,-0.28218 -0.21236,-0.28243 -0.21237,-0.28255 -0.21237,-0.28256 -0.21236,-0.28242 -0.21237,-0.28217 -0.21237,-0.28177 -0.21236,-0.28125 -0.21237,-0.28059 -0.21237,-0.27979 -0.21236,-0.27886 -0.21237,-0.27777 -0.21237,-0.27656 -0.21236,-0.27521 -0.21237,-0.2737 -0.21237,-0.27205 -0.21236,-0.27027 -0.21237,-0.26834 -0.21236,-0.26626 -0.21237,-0.26403 -0.21237,-0.26167 -0.21236,-0.25916 -0.21237,-0.25649 -0.21237,-0.25369 -0.21236,-0.25075 -0.21237,-0.24765 -0.21237,-0.24441 -0.21236,-0.24104 -0.21237,-0.23751 -0.21236,-0.23386 -0.21237,-0.23005 -0.21237,-0.22612 -0.21236,-0.22204 -0.21237,-0.21782 -0.21237,-0.21349 -0.21236,-0.20901 -0.21237,-0.2044 -0.21237,-0.19968 -0.21236,-0.19481 -0.21237,-0.18984 -0.21237,-0.18473 -0.21236,-0.17952 -0.21237,-0.17419 -0.21237,-0.16874 -0.21236,-0.1632 -0.21237,-0.15753 -0.21236,-0.15178 -0.21237,-0.14592 -0.21237,-0.13996 -0.21236,-0.13392 -0.21237,-0.12778 -0.21237,-0.12157 -0.21236,-0.11526 -0.21237,-0.1089 -0.21237,-0.10244 -0.21236,-0.0959 -0.21237,-0.0893 -0.21237,-0.0827 -0.21236,-0.076 -0.21237,-0.0693 -0.21237,-0.0625 -0.21236,-0.0556 -0.21237,-0.0488 -0.21236,-0.0419 -0.21237,-0.0349 -0.21237,-0.028 -0.21236,-0.021 -0.21237,-0.014 -0.21237,-0.007 h -0.21236 l -0.21237,0.007 -0.21237,0.014 -0.21236,0.021 -0.21237,0.028 -0.21237,0.0349 -0.21236,0.0419 -0.21237,0.0488 -0.21236,0.0556 -0.21237,0.0625 -0.21237,0.0693 -0.21236,0.076 -0.21237,0.0827 -0.21237,0.0893 -0.21236,0.0959 -0.21237,0.10244 -0.21237,0.1089 -0.21236,0.11526 -0.21237,0.12157 -0.21237,0.12778 -0.21236,0.13392 -0.21237,0.13996 -0.21237,0.14592 -0.21236,0.15178 -0.21237,0.15753 -0.21236,0.1632 -0.21237,0.16874 -0.21237,0.17419 -0.21236,0.17952 -0.21237,0.18473 -0.21237,0.18984 -0.21236,0.19481 -0.21237,0.19968 -0.21237,0.2044 -0.21236,0.20901 -0.21237,0.21349 -0.21237,0.21782 -0.21236,0.22204 -0.21237,0.22612 -0.21236,0.23005 -0.21237,0.23386 -0.21237,0.23751 -0.21236,0.24104 -0.21237,0.24441 -0.21237,0.24765 -0.21236,0.25075 -0.21237,0.25369 -0.21237,0.25649 -0.21236,0.25916 -0.21237,0.26167 -0.21237,0.26403 -0.21236,0.26626 -0.21237,0.26834 -0.21236,0.27027 -0.21237,0.27205 -0.21237,0.2737 -0.21236,0.27521 -0.21237,0.27656 -0.21237,0.27777 -0.21236,0.27886 -0.21237,0.27979 -0.21237,0.28059 -0.21236,0.28125 -0.21237,0.28177 -0.21237,0.28217 -0.21236,0.28242 -0.21237,0.28256 -0.21237,0.28255 -0.21236,0.28243 -0.21237,0.28218 -0.21236,0.2818 -0.21237,0.28131 -0.21237,0.2807 -0.21236,0.27996 -0.21237,0.27912 -0.21237,0.27817 -0.21236,0.27711 -0.21237,0.27594 -0.21237,0.27466 -0.21236,0.2733 -0.21237,0.27182 -0.21237,0.27025 -0.21236,0.2686 -0.21237,0.26685 -0.21236,0.265 -0.21237,0.26309 -0.21237,0.26109 -0.21236,0.25901 -0.21237,0.25685 -0.21237,0.25463 -0.21236,0.25232 -0.21237,0.24996 -0.21237,0.24754 -0.21236,0.24504 -0.21237,0.2425 -0.21237,0.2399 -0.21236,0.23724 -0.21237,0.23454 -0.21236,0.23179 -0.21237,0.229 -0.21237,0.22616 -0.21236,0.2233 -0.21237,0.22038 -0.21237,0.21745 -0.21236,0.21448 -0.21237,0.21149 -0.21237,0.20847 -0.21236,0.20543 -0.21237,0.20237 -0.21237,0.19929 -0.21236,0.1962 -0.21237,0.1931 -0.21237,0.18999 -0.21236,0.18687 -0.21237,0.18374 -0.21236,0.18062 -0.21237,0.1775 -0.21237,0.17437 -0.21236,0.17125 -0.21237,0.16813 -0.21237,0.16503 -0.21236,0.16193 -0.21237,0.15884 -0.21237,0.15577 -0.21236,0.15272 -0.21237,0.14966 -0.21237,0.14665 -0.21236,0.14364 -0.21237,0.14066 -0.21236,0.1377 -0.21237,0.13476 -0.21237,0.13185 -0.21236,0.12896 -0.21237,0.1261 -0.21237,0.12328 -0.21236,0.12047 -0.21237,0.1177 -0.21237,0.11497 -0.21236,0.11226 -0.21237,0.10958 -0.21237,0.10695 -0.21236,0.10435 -0.21237,0.10177 -0.21236,0.0992 -0.21237,0.0967 -0.21237,0.0943 -0.21236,0.0919 -0.21237,0.0895 -0.21237,0.0871 -0.21236,0.0848 -0.21237,0.0826 -0.21237,0.0803 -0.21236,0.0781 -0.21237,0.076 -0.21236,0.0739 -0.21237,0.0718 -0.21237,0.0698 -0.21237,0.0678 -0.21236,0.0658 -0.21237,0.0639 -0.21236,0.062 -0.21237,0.0602 -0.21237,0.0584 -0.21236,0.0566 -0.21237,0.0549 -0.21237,0.0532 -0.21236,0.0516 -0.21237,0.05 -0.21237,0.0484 -0.21236,0.0469 -0.21237,0.0454 -0.21236,0.0439 -0.21237,0.0425 -0.21237,0.0411 -0.21236,0.0397 -0.21237,0.0384 -0.21237,0.0371 -0.21236,0.0359 -0.21237,0.0347 -0.21237,0.0335 -0.21236,0.0323 -0.21237,0.0312 -0.21237,0.0301 -0.21236,0.0291 -0.21237,0.028 -0.21237,0.0271 -0.21236,0.0261 -0.21237,0.0251 -0.21236,0.0242 -0.21237,0.0233 -0.21237,0.0225 -0.21236,0.0216 -0.21237,0.0208 -0.21237,0.02 -0.21236,0.0193 -0.21237,0.0186 -0.21237,0.0178 -0.21236,0.0172 -0.21237,0.0165 z"
             style="stroke:#add8e6;stroke-opacity:0.6" />
        </defs>
        <g
           clip-path="url(#p6419148de9)"
           id="g8">
          <use
             xlink:href="#m1cc0e08d74"
             x="0"
             y="432"
             style="fill:#add8e6;fill-opacity:0.6;stroke:#add8e6;stroke-opacity:0.6"
             id="use8" />
        </g>
      </g>
      <g
         id="PolyCollection_3"
         transform="rotate(65.268703,437.3205,49.46299)">
        <defs
           id="defs9">
          <path
             id="m86f7c97a28"
             d="m 401.46369,-379.63241 v 0.34417 h 0.21236 0.21237 0.21237 0.21236 0.21237 0.21237 0.21236 0.21237 0.21236 0.21237 0.21237 0.21237 0.21236 0.21237 0.21236 0.21237 0.21237 0.21236 0.21237 0.21237 0.21236 0.21237 0.21236 0.21237 0.21237 0.21236 0.21237 0.21237 0.21236 0.21237 0.21237 0.21236 0.21237 0.21237 0.21236 0.21237 0.21237 0.21236 0.21237 0.21236 0.21237 0.21237 0.21236 0.21237 0.21237 0.21236 0.21237 0.21237 0.21236 0.21237 0.21237 0.21236 0.21237 0.21236 0.21237 0.21237 0.21236 0.21237 0.21237 0.21236 0.21237 0.21237 0.21236 0.21237 0.21237 0.21236 0.21237 0.21236 0.21237 0.21237 0.21236 0.21237 0.21237 0.21236 0.21237 0.21237 0.21236 0.21237 0.21237 0.21236 0.21237 0.21237 0.21236 0.21237 0.21236 0.21237 0.21237 0.21236 0.21237 0.21237 0.21236 0.21237 0.21237 0.21236 0.21237 0.21237 0.21236 0.21237 0.21236 0.21237 0.21237 0.21236 0.21237 0.21237 0.21236 0.21237 0.21237 0.21236 0.21237 0.21237 0.21236 0.21237 0.21236 0.21237 0.21237 0.21236 0.21237 0.21237 0.21236 0.21237 0.21237 0.21236 0.21237 0.21237 0.21236 0.21237 0.21237 0.21236 0.21237 0.21236 0.21237 0.21237 0.21236 0.21237 0.21237 0.21236 0.21237 0.21237 0.21236 0.21237 0.21237 0.21236 0.21237 0.21237 0.21236 0.21237 0.21236 0.21237 0.21237 0.21236 0.21237 0.21237 0.21236 0.21237 0.21237 0.21236 0.21237 0.21236 0.21237 0.21237 0.21236 0.21237 0.21237 0.21236 0.21237 0.21237 0.21236 0.21237 0.21237 0.21236 0.21237 0.21237 0.21236 0.21237 0.21236 0.21237 0.21237 0.21236 0.21237 0.21237 0.21236 0.21237 0.21237 0.21236 0.21237 0.21237 0.21236 0.21237 0.21237 0.21236 0.21237 0.21236 0.21237 0.21237 0.21236 0.21237 0.21237 0.21236 0.21237 0.21237 0.21236 0.21237 0.21236 0.21237 0.21237 0.21237 0.21236 0.21237 0.21236 0.21237 0.21237 0.21236 0.21237 0.21237 0.21236 0.21237 0.21237 0.21236 0.21237 0.21236 0.21237 0.21237 0.21236 0.21237 0.21237 0.21236 0.21237 0.21237 0.21236 0.21237 0.21237 0.21236 0.21237 0.21237 0.21236 0.21237 0.21236 0.21237 0.21237 0.21236 0.21237 0.21237 0.21236 0.21237 0.21237 0.21236 0.21237 0.21236 0.21237 0.21237 0.21237 0.21236 0.21237 0.21236 0.21237 0.21237 0.21236 0.21237 0.21237 0.21236 0.21237 0.21237 0.21236 0.21237 0.21236 0.21237 0.21237 0.21236 0.21237 0.21237 0.21236 0.21237 0.21237 0.21236 0.21237 0.21237 0.21236 0.21237 0.21237 0.21236 0.21237 0.21236 0.21237 0.21237 0.21236 0.21237 0.21237 0.21236 0.21237 0.21237 0.21236 0.21237 0.21236 0.21237 0.21237 0.21237 0.21236 0.21237 0.21236 0.21237 0.21237 0.21236 0.21237 0.21237 0.21236 0.21237 0.21237 0.21236 0.21237 0.21236 0.21237 0.21237 0.21236 0.21237 0.21237 0.21236 0.21237 0.21237 0.21236 0.21237 0.21237 0.21236 0.21237 0.21237 0.21236 0.21237 0.21236 0.21237 0.21237 0.21236 0.21237 0.21237 0.21236 0.21237 0.21237 0.21236 0.21237 0.21236 0.21237 0.21237 0.21237 0.21236 0.21237 0.21236 0.21237 0.21237 0.21236 0.21237 0.21237 0.21236 0.21237 0.21237 0.21236 0.21237 0.21236 0.21237 0.21237 0.21236 0.21237 0.21237 0.21236 0.21237 0.21237 0.21236 0.21237 0.21237 0.21236 0.21237 0.21236 0.21237 0.21237 0.21236 0.21237 0.21237 0.21236 0.21237 0.21237 0.21236 0.21237 0.21237 0.21236 0.21237 0.21236 0.21237 0.21237 0.21236 0.21237 0.21237 0.21236 0.21237 0.21237 0.21236 0.21237 0.21237 0.21236 0.21237 0.21237 0.21236 0.21237 v -0.34417 0 l -0.21237,-0.0159 -0.21236,-0.0165 -0.21237,-0.0172 -0.21237,-0.0178 -0.21236,-0.0186 -0.21237,-0.0193 -0.21237,-0.02 -0.21236,-0.0208 -0.21237,-0.0216 -0.21237,-0.0225 -0.21236,-0.0233 -0.21237,-0.0242 -0.21237,-0.0251 -0.21236,-0.0261 -0.21237,-0.0271 -0.21237,-0.028 -0.21236,-0.0291 -0.21237,-0.0301 -0.21236,-0.0312 -0.21237,-0.0324 -0.21237,-0.0335 -0.21236,-0.0347 -0.21237,-0.0359 -0.21237,-0.0371 -0.21236,-0.0384 -0.21237,-0.0398 -0.21237,-0.0411 -0.21236,-0.0425 -0.21237,-0.0439 -0.21237,-0.0454 -0.21236,-0.0469 -0.21237,-0.0484 -0.21236,-0.05 -0.21237,-0.0516 -0.21237,-0.0532 -0.21236,-0.0549 -0.21237,-0.0566 -0.21237,-0.0584 -0.21236,-0.0602 -0.21237,-0.062 -0.21237,-0.0639 -0.21236,-0.0658 -0.21237,-0.0678 -0.21237,-0.0698 -0.21236,-0.0718 -0.21237,-0.0739 -0.21236,-0.076 -0.21237,-0.0781 -0.21237,-0.0803 -0.21236,-0.0826 -0.21237,-0.0848 -0.21237,-0.0871 -0.21236,-0.0895 -0.21237,-0.0919 -0.21237,-0.0943 -0.21236,-0.0967 -0.21237,-0.0992 -0.21236,-0.10177 -0.21237,-0.10435 -0.21237,-0.10694 -0.21237,-0.10959 -0.21236,-0.11226 -0.21237,-0.11496 -0.21236,-0.11771 -0.21237,-0.12047 -0.21237,-0.12328 -0.21236,-0.1261 -0.21237,-0.12896 -0.21237,-0.13185 -0.21236,-0.13476 -0.21237,-0.1377 -0.21237,-0.14066 -0.21236,-0.14364 -0.21237,-0.14664 -0.21236,-0.14967 -0.21237,-0.15271 -0.21237,-0.15577 -0.21236,-0.15885 -0.21237,-0.16193 -0.21237,-0.16502 -0.21236,-0.16814 -0.21237,-0.17125 -0.21237,-0.17437 -0.21236,-0.17749 -0.21237,-0.18062 -0.21237,-0.18375 -0.21236,-0.18687 -0.21237,-0.18999 -0.21237,-0.1931 -0.21236,-0.1962 -0.21237,-0.19929 -0.21236,-0.20237 -0.21237,-0.20543 -0.21237,-0.20847 -0.21236,-0.21148 -0.21237,-0.21449 -0.21237,-0.21745 -0.21236,-0.22038 -0.21237,-0.2233 -0.21237,-0.22616 -0.21236,-0.229 -0.21237,-0.23179 -0.21236,-0.23454 -0.21237,-0.23724 -0.21237,-0.2399 -0.21237,-0.2425 -0.21236,-0.24504 -0.21237,-0.24754 -0.21236,-0.24996 -0.21237,-0.25232 -0.21237,-0.25463 -0.21236,-0.25685 -0.21237,-0.25901 -0.21237,-0.26108 -0.21236,-0.26309 -0.21237,-0.26501 -0.21237,-0.26685 -0.21236,-0.26859 -0.21237,-0.27026 -0.21236,-0.27182 -0.21237,-0.27329 -0.21237,-0.27467 -0.21236,-0.27594 -0.21237,-0.27711 -0.21237,-0.27817 -0.21236,-0.27912 -0.21237,-0.27996 -0.21237,-0.2807 -0.21236,-0.28131 -0.21237,-0.2818 -0.21237,-0.28218 -0.21236,-0.28243 -0.21237,-0.28255 -0.21237,-0.28256 -0.21236,-0.28242 -0.21237,-0.28217 -0.21236,-0.28177 -0.21237,-0.28125 -0.21237,-0.28059 -0.21236,-0.27979 -0.21237,-0.27885 -0.21237,-0.27778 -0.21236,-0.27656 -0.21237,-0.2752 -0.21237,-0.2737 -0.21236,-0.27206 -0.21237,-0.27027 -0.21236,-0.26834 -0.21237,-0.26626 -0.21237,-0.26403 -0.21237,-0.26167 -0.21236,-0.25915 -0.21237,-0.2565 -0.21236,-0.25369 -0.21237,-0.25075 -0.21237,-0.24765 -0.21236,-0.24441 -0.21237,-0.24104 -0.21237,-0.23751 -0.21236,-0.23386 -0.21237,-0.23005 -0.21237,-0.22612 -0.21236,-0.22203 -0.21237,-0.21783 -0.21236,-0.21349 -0.21237,-0.20901 -0.21237,-0.2044 -0.21236,-0.19967 -0.21237,-0.19482 -0.21237,-0.18984 -0.21236,-0.18473 -0.21237,-0.17952 -0.21237,-0.17419 -0.21236,-0.16874 -0.21237,-0.1632 -0.21237,-0.15753 -0.21236,-0.15178 -0.21237,-0.14591 -0.21237,-0.13997 -0.21236,-0.13391 -0.21237,-0.12779 -0.21236,-0.12156 -0.21237,-0.11527 -0.21237,-0.1089 -0.21236,-0.10244 -0.21237,-0.0959 -0.21237,-0.0893 -0.21236,-0.0827 -0.21237,-0.076 -0.21237,-0.0693 -0.21236,-0.0625 -0.21237,-0.0556 -0.21236,-0.0488 -0.21237,-0.0419 -0.21237,-0.0349 -0.21237,-0.028 -0.21236,-0.021 -0.21237,-0.014 -0.21236,-0.007 h -0.21237 l -0.21237,0.007 -0.21236,0.014 -0.21237,0.021 -0.21237,0.028 -0.21236,0.0349 -0.21237,0.0419 -0.21237,0.0488 -0.21236,0.0556 -0.21237,0.0625 -0.21236,0.0693 -0.21237,0.076 -0.21237,0.0827 -0.21236,0.0893 -0.21237,0.0959 -0.21237,0.10244 -0.21236,0.1089 -0.21237,0.11527 -0.21237,0.12156 -0.21236,0.12779 -0.21237,0.13391 -0.21237,0.13997 -0.21236,0.14591 -0.21237,0.15178 -0.21237,0.15753 -0.21236,0.1632 -0.21237,0.16874 -0.21236,0.17419 -0.21237,0.17952 -0.21237,0.18473 -0.21236,0.18984 -0.21237,0.19482 -0.21237,0.19967 -0.21236,0.2044 -0.21237,0.20901 -0.21237,0.21349 -0.21236,0.21783 -0.21237,0.22203 -0.21237,0.22612 -0.21236,0.23005 -0.21237,0.23386 -0.21237,0.23751 -0.21236,0.24104 -0.21237,0.24441 -0.21236,0.24765 -0.21237,0.25075 -0.21237,0.25369 -0.21236,0.2565 -0.21237,0.25915 -0.21237,0.26167 -0.21236,0.26403 -0.21237,0.26626 -0.21237,0.26834 -0.21236,0.27027 -0.21237,0.27206 -0.21236,0.2737 -0.21237,0.2752 -0.21237,0.27656 -0.21236,0.27778 -0.21237,0.27885 -0.21237,0.27979 -0.21236,0.28059 -0.21237,0.28125 -0.21237,0.28177 -0.21236,0.28217 -0.21237,0.28242 -0.21237,0.28256 -0.21236,0.28255 -0.21237,0.28243 -0.21237,0.28218 -0.21236,0.2818 -0.21237,0.28131 -0.21236,0.2807 -0.21237,0.27996 -0.21237,0.27912 -0.21236,0.27817 -0.21237,0.27711 -0.21237,0.27594 -0.21236,0.27467 -0.21237,0.27329 -0.21237,0.27182 -0.21236,0.27026 -0.21237,0.26859 -0.21237,0.26685 -0.21236,0.26501 -0.21237,0.26309 -0.21237,0.26108 -0.21236,0.25901 -0.21237,0.25685 -0.21236,0.25463 -0.21237,0.25232 -0.21237,0.24996 -0.21236,0.24754 -0.21237,0.24504 -0.21237,0.2425 -0.21236,0.2399 -0.21237,0.23724 -0.21237,0.23454 -0.21236,0.23179 -0.21237,0.229 -0.21237,0.22616 -0.21236,0.2233 -0.21237,0.22038 -0.21236,0.21745 -0.21237,0.21449 -0.21237,0.21148 -0.21236,0.20847 -0.21237,0.20543 -0.21237,0.20237 -0.21236,0.19929 -0.21237,0.1962 -0.21237,0.1931 -0.21236,0.18999 -0.21237,0.18687 -0.21237,0.18375 -0.21236,0.18062 -0.21237,0.17749 -0.21236,0.17437 -0.21237,0.17125 -0.21237,0.16814 -0.21236,0.16502 -0.21237,0.16193 -0.21237,0.15885 -0.21236,0.15577 -0.21237,0.15271 -0.21237,0.14967 -0.21236,0.14664 -0.21237,0.14364 -0.21237,0.14066 -0.21236,0.1377 -0.21237,0.13476 -0.21237,0.13185 -0.21236,0.12896 -0.21237,0.1261 -0.21236,0.12328 -0.21237,0.12047 -0.21237,0.11771 -0.21236,0.11496 -0.21237,0.11226 -0.21237,0.10959 -0.21236,0.10694 -0.21237,0.10435 -0.21237,0.10177 -0.21236,0.0992 -0.21237,0.0967 -0.21237,0.0943 -0.21236,0.0919 -0.21237,0.0895 -0.21236,0.0871 -0.21237,0.0848 -0.21237,0.0826 -0.21236,0.0803 -0.21237,0.0781 -0.21237,0.076 -0.21236,0.0739 -0.21237,0.0718 -0.21237,0.0698 -0.21236,0.0678 -0.21237,0.0658 -0.21237,0.0639 -0.21236,0.062 -0.21237,0.0602 -0.21236,0.0584 -0.21237,0.0566 -0.21237,0.0549 -0.21236,0.0532 -0.21237,0.0516 -0.21237,0.05 -0.21236,0.0484 -0.21237,0.0469 -0.21237,0.0454 -0.21236,0.0439 -0.21237,0.0425 -0.21237,0.0411 -0.21236,0.0398 -0.21237,0.0384 -0.21237,0.0371 -0.21236,0.0359 -0.21237,0.0347 -0.21236,0.0335 -0.21237,0.0324 -0.21237,0.0312 -0.21236,0.0301 -0.21237,0.0291 -0.21237,0.028 -0.21236,0.0271 -0.21237,0.0261 -0.21236,0.0251 -0.21237,0.0242 -0.21237,0.0233 -0.21237,0.0225 -0.21236,0.0216 -0.21237,0.0208 -0.21236,0.02 -0.21237,0.0193 -0.21237,0.0186 -0.21236,0.0178 -0.21237,0.0172 -0.21237,0.0165 z"
             style="stroke:#add8e6;stroke-opacity:0.6" />
        </defs>
        <g
           clip-path="url(#p6419148de9)"
           id="g9">
          <use
             xlink:href="#m86f7c97a28"
             x="0"
             y="432"
             style="fill:#add8e6;fill-opacity:0.6;stroke:#add8e6;stroke-opacity:0.6"
             id="use9" />
        </g>
      </g>
      <g
         id="matplotlib.axis_1">
        <g
           id="xtick_1">
          <g
             id="line2d_1" />
          <g
             id="text_1">
            <!-- 1 -->
            <g
               transform="translate(44.586974 395.198125) scale(0.12 -0.12)"
               id="g10">
              <defs
                 id="defs10">
                <path
                   id="DejaVuSans-31"
                   d="M 794 531  L 1825 531  L 1825 4091  L 703 3866  L 703 4441  L 1819 4666  L 2450 4666  L 2450 531  L 3481 531  L 3481 0  L 794 0  L 794 531  z "
                   transform="scale(0.015625)" />
              </defs>
              <use
                 xlink:href="#DejaVuSans-31"
                 id="use10" />
            </g>
          </g>
        </g>
        <g
           id="xtick_2">
          <g
             id="line2d_2" />
          <g
             id="text_2">
            <!-- 2 -->
            <g
               transform="translate(101.076448 395.198125) scale(0.12 -0.12)"
               id="g11">
              <defs
                 id="defs11">
                <path
                   id="DejaVuSans-32"
                   d="M 1228 531  L 3431 531  L 3431 0  L 469 0  L 469 531  Q 828 903 1448 1529  Q 2069 2156 2228 2338  Q 2531 2678 2651 2914  Q 2772 3150 2772 3378  Q 2772 3750 2511 3984  Q 2250 4219 1831 4219  Q 1534 4219 1204 4116  Q 875 4013 500 3803  L 500 4441  Q 881 4594 1212 4672  Q 1544 4750 1819 4750  Q 2544 4750 2975 4387  Q 3406 4025 3406 3419  Q 3406 3131 3298 2873  Q 3191 2616 2906 2266  Q 2828 2175 2409 1742  Q 1991 1309 1228 531  z "
                   transform="scale(0.015625)" />
              </defs>
              <use
                 xlink:href="#DejaVuSans-32"
                 id="use11" />
            </g>
          </g>
        </g>
        <g
           id="xtick_3">
          <g
             id="line2d_3" />
          <g
             id="text_3">
            <!-- 5 -->
            <g
               transform="translate(270.54487 395.198125) scale(0.12 -0.12)"
               id="g12">
              <defs
                 id="defs12">
                <path
                   id="DejaVuSans-35"
                   d="M 691 4666  L 3169 4666  L 3169 4134  L 1269 4134  L 1269 2991  Q 1406 3038 1543 3061  Q 1681 3084 1819 3084  Q 2600 3084 3056 2656  Q 3513 2228 3513 1497  Q 3513 744 3044 326  Q 2575 -91 1722 -91  Q 1428 -91 1123 -41  Q 819 9 494 109  L 494 744  Q 775 591 1075 516  Q 1375 441 1709 441  Q 2250 441 2565 725  Q 2881 1009 2881 1497  Q 2881 1984 2565 2268  Q 2250 2553 1709 2553  Q 1456 2553 1204 2497  Q 953 2441 691 2322  L 691 4666  z "
                   transform="scale(0.015625)" />
              </defs>
              <use
                 xlink:href="#DejaVuSans-35"
                 id="use12" />
            </g>
          </g>
        </g>
        <g
           id="xtick_4">
          <g
             id="line2d_4" />
          <g
             id="text_4">
            <!-- 10 -->
            <g
               transform="translate(549.174741 395.198125) scale(0.12 -0.12)"
               id="g14">
              <defs
                 id="defs13">
                <path
                   id="DejaVuSans-30"
                   d="M 2034 4250  Q 1547 4250 1301 3770  Q 1056 3291 1056 2328  Q 1056 1369 1301 889  Q 1547 409 2034 409  Q 2525 409 2770 889  Q 3016 1369 3016 2328  Q 3016 3291 2770 3770  Q 2525 4250 2034 4250  z M 2034 4750  Q 2819 4750 3233 4129  Q 3647 3509 3647 2328  Q 3647 1150 3233 529  Q 2819 -91 2034 -91  Q 1250 -91 836 529  Q 422 1150 422 2328  Q 422 3509 836 4129  Q 1250 4750 2034 4750  z "
                   transform="scale(0.015625)" />
              </defs>
              <use
                 xlink:href="#DejaVuSans-31"
                 id="use13" />
              <use
                 xlink:href="#DejaVuSans-30"
                 x="63.623047"
                 id="use14" />
            </g>
          </g>
        </g>
        <g
           id="text_5">
          <!-- Surface [m²] -->
          <g
             transform="translate(272.605282 419.292187) scale(0.1 -0.1)"
             id="g26">
            <defs
               id="defs14">
              <path
                 id="DejaVuSans-53"
                 d="M 3425 4513  L 3425 3897  Q 3066 4069 2747 4153  Q 2428 4238 2131 4238  Q 1616 4238 1336 4038  Q 1056 3838 1056 3469  Q 1056 3159 1242 3001  Q 1428 2844 1947 2747  L 2328 2669  Q 3034 2534 3370 2195  Q 3706 1856 3706 1288  Q 3706 609 3251 259  Q 2797 -91 1919 -91  Q 1588 -91 1214 -16  Q 841 59 441 206  L 441 856  Q 825 641 1194 531  Q 1563 422 1919 422  Q 2459 422 2753 634  Q 3047 847 3047 1241  Q 3047 1584 2836 1778  Q 2625 1972 2144 2069  L 1759 2144  Q 1053 2284 737 2584  Q 422 2884 422 3419  Q 422 4038 858 4394  Q 1294 4750 2059 4750  Q 2388 4750 2728 4690  Q 3069 4631 3425 4513  z "
                 transform="scale(0.015625)" />
              <path
                 id="DejaVuSans-75"
                 d="M 544 1381  L 544 3500  L 1119 3500  L 1119 1403  Q 1119 906 1312 657  Q 1506 409 1894 409  Q 2359 409 2629 706  Q 2900 1003 2900 1516  L 2900 3500  L 3475 3500  L 3475 0  L 2900 0  L 2900 538  Q 2691 219 2414 64  Q 2138 -91 1772 -91  Q 1169 -91 856 284  Q 544 659 544 1381  z M 1991 3584  L 1991 3584  z "
                 transform="scale(0.015625)" />
              <path
                 id="DejaVuSans-72"
                 d="M 2631 2963  Q 2534 3019 2420 3045  Q 2306 3072 2169 3072  Q 1681 3072 1420 2755  Q 1159 2438 1159 1844  L 1159 0  L 581 0  L 581 3500  L 1159 3500  L 1159 2956  Q 1341 3275 1631 3429  Q 1922 3584 2338 3584  Q 2397 3584 2469 3576  Q 2541 3569 2628 3553  L 2631 2963  z "
                 transform="scale(0.015625)" />
              <path
                 id="DejaVuSans-66"
                 d="M 2375 4863  L 2375 4384  L 1825 4384  Q 1516 4384 1395 4259  Q 1275 4134 1275 3809  L 1275 3500  L 2222 3500  L 2222 3053  L 1275 3053  L 1275 0  L 697 0  L 697 3053  L 147 3053  L 147 3500  L 697 3500  L 697 3744  Q 697 4328 969 4595  Q 1241 4863 1831 4863  L 2375 4863  z "
                 transform="scale(0.015625)" />
              <path
                 id="DejaVuSans-61"
                 d="M 2194 1759  Q 1497 1759 1228 1600  Q 959 1441 959 1056  Q 959 750 1161 570  Q 1363 391 1709 391  Q 2188 391 2477 730  Q 2766 1069 2766 1631  L 2766 1759  L 2194 1759  z M 3341 1997  L 3341 0  L 2766 0  L 2766 531  Q 2569 213 2275 61  Q 1981 -91 1556 -91  Q 1019 -91 701 211  Q 384 513 384 1019  Q 384 1609 779 1909  Q 1175 2209 1959 2209  L 2766 2209  L 2766 2266  Q 2766 2663 2505 2880  Q 2244 3097 1772 3097  Q 1472 3097 1187 3025  Q 903 2953 641 2809  L 641 3341  Q 956 3463 1253 3523  Q 1550 3584 1831 3584  Q 2591 3584 2966 3190  Q 3341 2797 3341 1997  z "
                 transform="scale(0.015625)" />
              <path
                 id="DejaVuSans-63"
                 d="M 3122 3366  L 3122 2828  Q 2878 2963 2633 3030  Q 2388 3097 2138 3097  Q 1578 3097 1268 2742  Q 959 2388 959 1747  Q 959 1106 1268 751  Q 1578 397 2138 397  Q 2388 397 2633 464  Q 2878 531 3122 666  L 3122 134  Q 2881 22 2623 -34  Q 2366 -91 2075 -91  Q 1284 -91 818 406  Q 353 903 353 1747  Q 353 2603 823 3093  Q 1294 3584 2113 3584  Q 2378 3584 2631 3529  Q 2884 3475 3122 3366  z "
                 transform="scale(0.015625)" />
              <path
                 id="DejaVuSans-65"
                 d="M 3597 1894  L 3597 1613  L 953 1613  Q 991 1019 1311 708  Q 1631 397 2203 397  Q 2534 397 2845 478  Q 3156 559 3463 722  L 3463 178  Q 3153 47 2828 -22  Q 2503 -91 2169 -91  Q 1331 -91 842 396  Q 353 884 353 1716  Q 353 2575 817 3079  Q 1281 3584 2069 3584  Q 2775 3584 3186 3129  Q 3597 2675 3597 1894  z M 3022 2063  Q 3016 2534 2758 2815  Q 2500 3097 2075 3097  Q 1594 3097 1305 2825  Q 1016 2553 972 2059  L 3022 2063  z "
                 transform="scale(0.015625)" />
              <path
                 id="DejaVuSans-20"
                 transform="scale(0.015625)" />
              <path
                 id="DejaVuSans-5b"
                 d="M 550 4863  L 1875 4863  L 1875 4416  L 1125 4416  L 1125 -397  L 1875 -397  L 1875 -844  L 550 -844  L 550 4863  z "
                 transform="scale(0.015625)" />
              <path
                 id="DejaVuSans-6d"
                 d="M 3328 2828  Q 3544 3216 3844 3400  Q 4144 3584 4550 3584  Q 5097 3584 5394 3201  Q 5691 2819 5691 2113  L 5691 0  L 5113 0  L 5113 2094  Q 5113 2597 4934 2840  Q 4756 3084 4391 3084  Q 3944 3084 3684 2787  Q 3425 2491 3425 1978  L 3425 0  L 2847 0  L 2847 2094  Q 2847 2600 2669 2842  Q 2491 3084 2119 3084  Q 1678 3084 1418 2786  Q 1159 2488 1159 1978  L 1159 0  L 581 0  L 581 3500  L 1159 3500  L 1159 2956  Q 1356 3278 1631 3431  Q 1906 3584 2284 3584  Q 2666 3584 2933 3390  Q 3200 3197 3328 2828  z "
                 transform="scale(0.015625)" />
              <path
                 id="DejaVuSans-b2"
                 d="M 838 2444  L 2163 2444  L 2163 2088  L 294 2088  L 294 2431  Q 400 2528 597 2703  Q 1672 3656 1672 3950  Q 1672 4156 1509 4282  Q 1347 4409 1081 4409  Q 919 4409 728 4354  Q 538 4300 313 4191  L 313 4575  Q 553 4663 761 4706  Q 969 4750 1147 4750  Q 1600 4750 1872 4544  Q 2144 4338 2144 4000  Q 2144 3566 1109 2678  Q 934 2528 838 2444  z "
                 transform="scale(0.015625)" />
              <path
                 id="DejaVuSans-5d"
                 d="M 1947 4863  L 1947 -844  L 622 -844  L 622 -397  L 1369 -397  L 1369 4416  L 622 4416  L 622 4863  L 1947 4863  z "
                 transform="scale(0.015625)" />
            </defs>
            <use
               xlink:href="#DejaVuSans-53"
               id="use15" />
            <use
               xlink:href="#DejaVuSans-75"
               x="63.476562"
               id="use16" />
            <use
               xlink:href="#DejaVuSans-72"
               x="126.855469"
               id="use17" />
            <use
               xlink:href="#DejaVuSans-66"
               x="167.96875"
               id="use18" />
            <use
               xlink:href="#DejaVuSans-61"
               x="203.173828"
               id="use19" />
            <use
               xlink:href="#DejaVuSans-63"
               x="264.453125"
               id="use20" />
            <use
               xlink:href="#DejaVuSans-65"
               x="319.433594"
               id="use21" />
            <use
               xlink:href="#DejaVuSans-20"
               x="380.957031"
               id="use22" />
            <use
               xlink:href="#DejaVuSans-5b"
               x="412.744141"
               id="use23" />
            <use
               xlink:href="#DejaVuSans-6d"
               x="451.757812"
               id="use24" />
            <use
               xlink:href="#DejaVuSans-b2"
               x="549.169922"
               id="use25" />
            <use
               xlink:href="#DejaVuSans-5d"
               x="589.257812"
               id="use26" />
          </g>
        </g>
      </g>
      <g
         id="matplotlib.axis_2">
        <g
           id="ytick_1">
          <g
             id="line2d_5" />
          <g
             id="text_6">
            <!-- 0 -->
            <g
               transform="translate(34.445 379.393646) scale(0.12 -0.12)"
               id="g27">
              <use
                 xlink:href="#DejaVuSans-30"
                 id="use27" />
            </g>
          </g>
        </g>
        <g
           id="ytick_2">
          <g
             id="line2d_6" />
          <g
             id="text_7">
            <!-- 1 -->
            <g
               transform="translate(34.445 224.485312) scale(0.12 -0.12)"
               id="g28">
              <use
                 xlink:href="#DejaVuSans-31"
                 id="use28" />
            </g>
          </g>
        </g>
        <g
           id="ytick_3">
          <g
             id="line2d_7" />
          <g
             id="text_8">
            <!-- 2 -->
            <g
               transform="translate(34.445 69.576979) scale(0.12 -0.12)"
               id="g29">
              <use
                 xlink:href="#DejaVuSans-32"
                 id="use29" />
            </g>
          </g>
        </g>
        <g
           id="text_9">
          <!-- Price [€] -->
          <g
             transform="translate(18.365312 217.559531) rotate(-90) scale(0.1 -0.1)"
             id="g38">
            <defs
               id="defs29">
              <path
                 id="DejaVuSans-50"
                 d="M 1259 4147  L 1259 2394  L 2053 2394  Q 2494 2394 2734 2622  Q 2975 2850 2975 3272  Q 2975 3691 2734 3919  Q 2494 4147 2053 4147  L 1259 4147  z M 628 4666  L 2053 4666  Q 2838 4666 3239 4311  Q 3641 3956 3641 3272  Q 3641 2581 3239 2228  Q 2838 1875 2053 1875  L 1259 1875  L 1259 0  L 628 0  L 628 4666  z "
                 transform="scale(0.015625)" />
              <path
                 id="DejaVuSans-69"
                 d="M 603 3500  L 1178 3500  L 1178 0  L 603 0  L 603 3500  z M 603 4863  L 1178 4863  L 1178 4134  L 603 4134  L 603 4863  z "
                 transform="scale(0.015625)" />
              <path
                 id="DejaVuSans-20ac"
                 d="M 3647 4306  L 3647 3641  Q 3363 3969 3098 4109  Q 2834 4250 2516 4250  Q 2025 4250 1709 3937  Q 1394 3625 1294 3041  L 3097 3041  L 2925 2656  L 1244 2656  Q 1238 2581 1236 2509  Q 1234 2438 1234 2328  Q 1234 2228 1236 2156  Q 1238 2084 1244 2009  L 2638 2009  L 2463 1625  L 1294 1625  Q 1394 1041 1709 725  Q 2025 409 2516 409  Q 2834 409 3098 550  Q 3363 691 3647 1019  L 3647 359  Q 3369 134 3080 21  Q 2791 -91 2491 -91  Q 1750 -91 1267 362  Q 784 816 659 1625  L 0 1625  L 172 2009  L 606 2009  Q 606 2081 604 2154  Q 603 2228 603 2328  Q 603 2438 604 2511  Q 606 2584 606 2656  L 0 2656  L 172 3041  L 659 3041  Q 784 3844 1268 4297  Q 1753 4750 2491 4750  Q 2797 4750 3086 4639  Q 3375 4528 3647 4306  z "
                 transform="scale(0.015625)" />
            </defs>
            <use
               xlink:href="#DejaVuSans-50"
               id="use30" />
            <use
               xlink:href="#DejaVuSans-72"
               x="58.552734"
               id="use31" />
            <use
               xlink:href="#DejaVuSans-69"
               x="99.666016"
               id="use32" />
            <use
               xlink:href="#DejaVuSans-63"
               x="127.449219"
               id="use33" />
            <use
               xlink:href="#DejaVuSans-65"
               x="182.429688"
               id="use34" />
            <use
               xlink:href="#DejaVuSans-20"
               x="243.953125"
               id="use35" />
            <use
               xlink:href="#DejaVuSans-5b"
               x="275.740234"
               id="use36" />
            <use
               xlink:href="#DejaVuSans-20ac"
               x="314.753906"
               id="use37" />
            <use
               xlink:href="#DejaVuSans-5d"
               x="378.376953"
               id="use38" />
          </g>
        </g>
      </g>
      <g
         id="line2d_8">
        <path
           d="M 48.404474 374.834583  L 51.799501 365.793606  L 56.043284 355.187374  L 60.287068 345.261025  L 64.530851 335.932621  L 68.774635 327.1342  L 73.018418 318.808764  L 77.262202 310.908043  L 82.354742 301.930155  L 87.447282 293.44421  L 92.539822 285.399085  L 97.632363 277.751234  L 102.724903 270.463261  L 108.6662 262.37255  L 114.607497 254.683516  L 120.548794 247.358155  L 126.490091 240.363613  L 133.280144 232.738424  L 140.070198 225.471033  L 146.860252 218.529361  L 153.650305 211.88546  L 161.289116 204.736613  L 168.927926 197.903174  L 176.566736 191.358485  L 185.054304 184.396879  L 193.541871 177.73472  L 202.029438 171.347306  L 211.365761 164.612579  L 220.702085 158.15849  L 230.038409 151.962582  L 240.223489 145.474585  L 250.40857 139.247434  L 261.442407 132.77238  L 272.476244 126.557154  L 284.358838 120.131464  L 296.241432 113.961732  L 308.972783 107.613105  L 321.704133 101.514453  L 335.284241 95.263451  L 348.864348 89.254941  L 363.293212 83.116374  L 378.570833 76.871401  L 393.848453 70.868461  L 409.974831 64.774674  L 426.949965 58.609036  L 443.925099 52.679437  L 461.74899 46.688373  L 480.421637 40.651031  L 499.943042 34.581167  L 520.313203 28.491175  L 540.683364 22.631572  L 556.809741 18.144964  L 556.809741 18.144964  "
           clip-path="url(#p6419148de9)"
           style="fill: none; stroke: #1f77b4; stroke-width: 2; stroke-linecap: round"
           id="path38" />
      </g>
      <g
         id="line2d_9"
         transform="rotate(31.341334,99.850164,268.26397)">
        <path
           d="m 62.526842,267.11613 3.61023,-0.37305 2.97313,-0.53289 2.548397,-0.69279 2.123665,-0.79385 2.123664,-1.03201 1.911298,-1.16148 1.911298,-1.40237 2.123665,-1.85293 2.123664,-2.15853 2.336031,-2.69231 2.97313,-3.78401 6.158627,-7.94629 2.123665,-2.31399 1.698931,-1.53618 1.486563,-1.06105 1.2742,-0.67188 1.2742,-0.43546 1.2742,-0.18854 1.2742,0.063 1.2742,0.31295 1.27419,0.55535 1.2742,0.78441 1.48657,1.17969 1.69893,1.65109 2.12366,2.42157 2.76077,3.52367 6.15863,7.95717 2.54839,2.8593 2.12367,2.06866 2.12366,1.75943 2.12366,1.45225 2.12367,1.16461 2.12366,0.90822 2.33603,0.74761 2.5484,0.57424 2.97313,0.43296 2.33603,0.21346 v 0"
           clip-path="url(#p6419148de9)"
           style="fill:none;stroke:#000000;stroke-width:2;stroke-linecap:square"
           id="path39" />
      </g>
      <g
         id="line2d_10"
         transform="rotate(57.963706,274.19706,127.14872)">
        <path
           d="m 231.99526,125.17506 3.61023,-0.37305 2.97313,-0.53289 2.5484,-0.6928 2.12367,-0.79384 2.12366,-1.03201 1.9113,-1.16148 1.9113,-1.40237 2.12366,-1.85293 2.12367,-2.15853 2.33603,-2.69231 2.97313,-3.78401 6.15862,-7.94629 2.12367,-2.313989 1.69893,-1.536181 1.48656,-1.061046 1.2742,-0.671886 1.2742,-0.435461 1.2742,-0.188534 1.2742,0.06297 1.2742,0.312948 1.2742,0.555343 1.2742,0.784417 1.48656,1.17969 1.69893,1.651091 2.12367,2.421568 2.76076,3.52367 6.15863,7.95718 2.54839,2.85929 2.12367,2.06866 2.12366,1.75943 2.12367,1.45225 2.12366,1.16462 2.12367,0.90821 2.33603,0.74761 2.5484,0.57424 2.97312,0.43296 2.33604,0.21346 v 0"
           clip-path="url(#p6419148de9)"
           style="fill:none;stroke:#000000;stroke-width:2;stroke-linecap:square"
           id="path40" />
      </g>
      <g
         id="line2d_11"
         transform="rotate(65.268703,437.3205,49.46299)">
        <path
           d="m 401.46369,52.367585 3.61023,-0.373052 2.97313,-0.53289 2.54839,-0.692797 2.12367,-0.793846 2.12366,-1.032005 1.9113,-1.161482 1.9113,-1.402373 2.12366,-1.852933 2.12367,-2.158528 2.33603,-2.692309 2.97313,-3.784008 6.15863,-7.946288 2.12366,-2.313992 1.69893,-1.536181 1.48657,-1.061046 1.2742,-0.671885 1.27419,-0.435462 1.2742,-0.188534 1.2742,0.06297 1.2742,0.312948 1.2742,0.555343 1.2742,0.784417 1.48656,1.17969 1.69893,1.651091 2.12367,2.42157 2.76076,3.523664 6.15863,7.957177 2.5484,2.85929 2.12366,2.068665 2.12367,1.75943 2.12366,1.452246 2.12367,1.164619 2.12366,0.908212 2.33603,0.747613 2.5484,0.574245 2.97313,0.432955 2.33603,0.213464 v 0"
           clip-path="url(#p6419148de9)"
           style="fill:none;stroke:#000000;stroke-width:2;stroke-linecap:square"
           id="path41" />
      </g>
      <g
         id="patch_3">
        <path
           d="M 50.405365 374.834583  Q 304.019375 374.834583 555.397316 374.834583  "
           style="fill: none; stroke: #000000; stroke-width: 2; stroke-linecap: round"
           id="path42" />
        <path
           d="M 551.397316 372.834583  L 555.397316 374.834583  L 551.397316 376.834583  "
           style="fill: none; stroke: #000000; stroke-width: 2; stroke-linecap: round"
           id="path43" />
      </g>
      <g
         id="patch_4">
        <path
           d="M 48.404474 372.835733  Q 48.404474 195.140811 48.404474 19.681958  "
           style="fill: none; stroke: #000000; stroke-width: 2; stroke-linecap: round"
           id="path44" />
        <path
           d="M 46.404474 23.681958  L 48.404474 19.681958  L 50.404474 23.681958  "
           style="fill: none; stroke: #000000; stroke-width: 2; stroke-linecap: round"
           id="path45" />
      </g>
    </g>
  </g>
  <defs
     id="defs45">
    <clipPath
       id="p6419148de9">
      <rect
         x="45.58"
         y="10.8"
         width="516.878689"
         height="371.78"
         id="rect45" />
    </clipPath>
  </defs>
</svg>
